<svg xmlns="http://www.w3.org/2000/svg" width="643.148" height="662.626" viewBox="0 0 643.148 662.626">
  <path id="Icon_awesome-android" data-name="Icon awesome-android" d="M65.132,195.136V326.078a30.985,30.985,0,0,1-31.1,31.322C16.735,357.4,0,343.379,0,326.078V195.136c0-17.074,16.735-31.1,34.036-31.1A31.224,31.224,0,0,1,65.132,195.136ZM77.344,372.665a33.4,33.4,0,0,0,33.47,33.47h22.5l.339,69.089c0,41.725,62.418,41.386,62.418,0V406.136h42.064v69.089c0,41.5,62.757,41.612,62.757,0V406.136h22.841a33.347,33.347,0,0,0,33.244-33.47V169.807H77.344V372.665ZM357.772,158.839H76.1c0-48.4,28.947-90.461,71.916-112.4l-21.6-39.916c-3.166-5.541,4.862-9.046,7.576-4.3l21.937,40.255c39.464-17.527,84.807-16.622,122.461,0L300.217,2.342c2.827-4.862,10.742-1.244,7.576,4.3l-21.6,39.8C328.825,68.378,357.772,110.442,357.772,158.839ZM164.752,96.082a11.871,11.871,0,0,0-11.873-11.873,11.878,11.878,0,0,0,0,23.746A11.871,11.871,0,0,0,164.752,96.082Zm128.228,0a11.7,11.7,0,1,0-11.534,11.873A11.8,11.8,0,0,0,292.98,96.082Zm107.2,67.959a31.006,31.006,0,0,0-31.1,31.1V326.078a31.2,31.2,0,0,0,31.1,31.322c17.414,0,34.036-14.021,34.036-31.322V195.136C434.212,177.722,417.476,164.04,400.176,164.04Z" transform="translate(283.171 0) rotate(34)"/>
</svg>
