<svg xmlns="http://www.w3.org/2000/svg" xmlns:xlink="http://www.w3.org/1999/xlink" width="1052.196" height="1263.216" viewBox="0 0 1052.196 1263.216">
  <defs>
    <filter id="Polígono_1" x="45" y="492.216" width="870" height="771" filterUnits="userSpaceOnUse">
      <feOffset input="SourceAlpha"/>
      <feGaussianBlur stdDeviation="25" result="blur"/>
      <feFlood flood-opacity="0.702"/>
      <feComposite operator="in" in2="blur"/>
      <feComposite in="SourceGraphic"/>
    </filter>
    <filter id="Elipse_1" x="0" y="87.216" width="960" height="960" filterUnits="userSpaceOnUse">
      <feOffset input="SourceAlpha"/>
      <feGaussianBlur stdDeviation="40" result="blur-2"/>
      <feFlood flood-opacity="0.502"/>
      <feComposite operator="in" in2="blur-2"/>
      <feComposite in="SourceGraphic"/>
    </filter>
    <filter id="Elipse_4" x="43.5" y="130.716" width="873" height="873" filterUnits="userSpaceOnUse">
      <feOffset input="SourceAlpha"/>
      <feGaussianBlur stdDeviation="49.5" result="blur-3"/>
      <feFlood flood-opacity="0.69"/>
      <feComposite operator="in" in2="blur-3"/>
      <feComposite in="SourceGraphic"/>
    </filter>
    <filter id="SANDIA" x="216" y="468.216" width="529" height="204" filterUnits="userSpaceOnUse">
      <feOffset dy="3" input="SourceAlpha"/>
      <feGaussianBlur stdDeviation="3" result="blur-4"/>
      <feFlood flood-opacity="0.161"/>
      <feComposite operator="in" in2="blur-4"/>
      <feComposite in="SourceGraphic"/>
    </filter>
    <filter id="Polígono_4" x="343" y="1005.216" width="274" height="258" filterUnits="userSpaceOnUse">
      <feOffset input="SourceAlpha"/>
      <feGaussianBlur stdDeviation="25" result="blur-5"/>
      <feFlood flood-opacity="0.702"/>
      <feComposite operator="in" in2="blur-5"/>
      <feComposite in="SourceGraphic"/>
    </filter>
  </defs>
  <g id="Grupo_3" data-name="Grupo 3" transform="translate(-480 0.216)">
    <g id="Grupo_2" data-name="Grupo 2">
      <path id="Icon_awesome-android" data-name="Icon awesome-android" d="M65.132,195.136V326.078a30.985,30.985,0,0,1-31.1,31.322C16.735,357.4,0,343.379,0,326.078V195.136c0-17.074,16.735-31.1,34.036-31.1A31.224,31.224,0,0,1,65.132,195.136ZM77.344,372.665a33.4,33.4,0,0,0,33.47,33.47h22.5l.339,69.089c0,41.725,62.418,41.386,62.418,0V406.136h42.064v69.089c0,41.5,62.757,41.612,62.757,0V406.136h22.841a33.347,33.347,0,0,0,33.244-33.47V169.807H77.344V372.665ZM357.772,158.839H76.1c0-48.4,28.947-90.461,71.916-112.4l-21.6-39.916c-3.166-5.541,4.862-9.046,7.576-4.3l21.937,40.255c39.464-17.527,84.807-16.622,122.461,0L300.217,2.342c2.827-4.862,10.742-1.244,7.576,4.3l-21.6,39.8C328.825,68.378,357.772,110.442,357.772,158.839ZM164.752,96.082a11.871,11.871,0,0,0-11.873-11.873,11.878,11.878,0,0,0,0,23.746A11.871,11.871,0,0,0,164.752,96.082Zm128.228,0a11.7,11.7,0,1,0-11.534,11.873A11.8,11.8,0,0,0,292.98,96.082Zm107.2,67.959a31.006,31.006,0,0,0-31.1,31.1V326.078a31.2,31.2,0,0,0,31.1,31.322c17.414,0,34.036-14.021,34.036-31.322V195.136C434.212,177.722,417.476,164.04,400.176,164.04Z" transform="translate(1172.219 -0.216) rotate(34)"/>
      <g id="Grupo_1" data-name="Grupo 1">
        <g transform="matrix(1, 0, 0, 1, 480, -0.22)" filter="url(#Polígono_1)">
          <path id="Polígono_1-2" data-name="Polígono 1" d="M360,0,720,621H0Z" transform="translate(840 1188.22) rotate(180)" fill="#242424"/>
        </g>
        <g transform="matrix(1, 0, 0, 1, 480, -0.22)" filter="url(#Elipse_1)">
          <circle id="Elipse_1-2" data-name="Elipse 1" cx="360" cy="360" r="360" transform="translate(120 207.22)" fill="#0c5a34"/>
        </g>
        <g transform="matrix(1, 0, 0, 1, 480, -0.22)" filter="url(#Elipse_4)">
          <circle id="Elipse_4-2" data-name="Elipse 4" cx="288" cy="288" r="288" transform="translate(192 279.22)" fill="#ff7f6e"/>
        </g>
        <g transform="matrix(1, 0, 0, 1, 480, -0.22)" filter="url(#SANDIA)">
          <text id="SANDIA-2" data-name="SANDIA" transform="translate(225 624.22)" fill="#242424" font-size="160" font-family="TrebuchetMS, Trebuchet MS"><tspan x="0" y="0">SANDIA</tspan></text>
        </g>
        <path id="Trazado_2" data-name="Trazado 2" d="M2864.373,398.153c-57.04-39.027-60.042-79.555-42.029-85.56S2864.373,398.153,2864.373,398.153Z" transform="translate(-2029 102)" fill="#242424"/>
        <path id="Trazado_3" data-name="Trazado 3" d="M2812.556,398.153c57.04-39.027,60.042-79.555,42.029-85.56S2812.556,398.153,2812.556,398.153Z" transform="translate(-1712 102)" fill="#242424"/>
      </g>
    </g>
    <g transform="matrix(1, 0, 0, 1, 480, -0.22)" filter="url(#Polígono_4)">
      <path id="Polígono_4-2" data-name="Polígono 4" d="M62,0l62,108H0Z" transform="translate(542 1188.22) rotate(180)" fill="#16db7a"/>
    </g>
  </g>
</svg>
